# xmcd
#
# Track frame offsets:
#   150
#   19595
#   41088
#   60714
#   80915
#   97800
#   118224
#   139647
#   158148
#
# Disc length: 2309 seconds
#
# Revision: 0
# Processed by: cddbd v1.5.1PL2 Copyright (c) Steve Scherf et al.
# Submitted via: GXTranscoder 2.0.1939
#
DISCID=72090309
DTITLE=Westlife - Greatest Hits
DYEAR=2003
DGENRE=Pop
TTITLE0=Living to love you
TTITLE1=Skin on Skin
TTITLE2=She´s the one
TTITLE3=Angels
TTITLE4=Feel
TTITLE5=I was made for loving you
TTITLE6=Forever and for Always
TTITLE7=Und wenn ein Lied
TTITLE8=Mandy
EXTD=
EXTT0=
EXTT1=
EXTT2=
EXTT3=
EXTT4=
EXTT5=
EXTT6=
EXTT7=
EXTT8=
PLAYORDER=
